<svg width="30" height="30" fill="none" xmlns="http://www.w3.org/2000/svg"><path d="M24.975 6.462c-2.388-1.922-6.166-2.248-6.328-2.26a.596.596 0 00-.593.352 3.96 3.96 0 00-.183.499c1.58.267 3.52.804 5.276 1.894a.6.6 0 11-.633 1.02C19.496 6.093 15.727 6 15 6c-.726 0-4.498.094-7.514 1.966a.6.6 0 01-.633-1.02C8.61 5.86 10.55 5.32 12.13 5.057a4.884 4.884 0 00-.18-.502.592.592 0 00-.596-.352c-.161.012-3.94.338-6.36 2.285C3.728 7.657 1.2 14.491 1.2 20.4c0 .105.028.206.08.298 1.744 3.065 6.504 3.867 7.589 3.902h.019a.6.6 0 00.485-.246l1.097-1.51c-2.96-.764-4.472-2.062-4.559-2.14a.6.6 0 01.795-.9C6.74 19.838 9.526 22.2 15 22.2c5.485 0 8.269-2.372 8.297-2.395a.6.6 0 01.792.9c-.086.077-1.598 1.375-4.558 2.14l1.097 1.509a.6.6 0 00.485.246h.018c1.086-.035 5.846-.837 7.59-3.902a.602.602 0 00.08-.298c0-5.909-2.53-12.743-3.826-13.938zM11.1 18C9.94 18 9 16.926 9 15.6c0-1.327.94-2.4 2.1-2.4 1.16 0 2.1 1.073 2.1 2.4 0 1.326-.94 2.4-2.1 2.4zm7.8 0c-1.16 0-2.1-1.074-2.1-2.4 0-1.327.94-2.4 2.1-2.4 1.16 0 2.1 1.073 2.1 2.4 0 1.326-.94 2.4-2.1 2.4z" fill="#fff"/></svg>