<svg width="152" height="82" fill="none" xmlns="http://www.w3.org/2000/svg"><g clip-path="url(#clip0_610_1938)"><path d="M44.979 81.126c-10.283-3.324-14.271-8.188-31.098-38.045L-.017 18.518l2.556-3.94C7.649 6.76 15.564 1.158 22.793.173c7.478-.985 16.702 3.078 22.435 9.973 2.867 3.447 2.867 3.57 1.558 6.033l-1.309 2.524 12.527 22.162c6.917 12.189 13.212 23.332 14.084 24.748l1.558 2.585-4.05 4.371c-7.292 7.88-16.64 11.081-24.617 8.557zm52.162.37c-11.093-2.832-15.144-7.573-31.97-37.368-7.666-13.42-13.898-24.994-13.898-25.672 0-2.4 7.354-11.204 11.779-14.036 8.101-5.232 16.016-5.786 23.931-1.539 5.92 3.202 11.03 9.173 17.574 20.685 3.179 5.54 9.535 16.745 14.147 24.81l8.351 14.713-1.745 3.14c-2.617 4.678-8.849 10.71-13.523 13.05-4.55 2.278-10.844 3.201-14.646 2.217zm20.005-45.187c-6.668-11.82-12.152-21.916-12.152-22.47 0-1.847 7.727-9.234 11.965-11.389 5.858-3.016 14.022-3.016 19.818 0 5.671 2.955 15.269 13.113 15.269 16.13 0 1.17-21.563 39.214-22.186 39.153-.312 0-6.046-9.604-12.714-21.424z" fill="url(#paint0_linear_610_1938)"/></g><defs><linearGradient id="paint0_linear_610_1938" x1="141.242" y1="-1.404" x2="-12.767" y2="84.691" gradientUnits="userSpaceOnUse"><stop stop-color="#A235FF"/><stop offset=".268" stop-color="#716CFE"/><stop offset=".488" stop-color="#4E98FD"/><stop offset=".688" stop-color="#2CC1FD"/><stop offset=".819" stop-color="#21D2FE"/><stop offset="1" stop-color="#21D2FE"/></linearGradient><clipPath id="clip0_610_1938"><path fill="#fff" d="M0 0h152v82H0z"/></clipPath></defs></svg>