<svg width="226" height="177" fill="none" xmlns="http://www.w3.org/2000/svg"><path opacity=".4" d="M112.837 176.944c28.812 0 57.624-6.341 79.56-19.054 21.327-12.364 33.107-28.8 33.107-46.313 0-17.512-11.751-33.978-33.107-46.312-43.871-25.397-115.25-25.397-159.15 0C11.892 77.628.14 94.065.14 111.577c0 17.513 11.752 33.978 33.078 46.313 21.965 12.713 50.777 19.054 79.619 19.054zm0-129.832c28.638 0 57.305 6.313 79.096 18.938 21.036 12.19 32.642 28.364 32.642 45.527 0 17.164-11.577 33.338-32.642 45.527-43.61 25.251-114.611 25.251-158.222 0C12.675 144.915 1.07 128.741 1.07 111.577c0-17.192 11.577-33.338 32.642-45.527 21.82-12.625 50.458-18.938 79.126-18.938z" fill="#2EC0FE"/><path d="M112.436 160.904c22.768 0 45.508-5.018 62.838-15.055 16.865-9.774 26.17-22.786 26.17-36.674 0-13.888-9.305-26.9-26.17-36.674-34.661-20.074-91.043-20.074-125.704 0-16.866 9.773-26.17 22.815-26.17 36.674 0 13.859 9.304 26.9 26.17 36.674 17.36 10.037 40.127 15.055 62.866 15.055zm.029-102.554c22.594 0 45.188 4.99 62.373 14.938 16.574 9.6 25.705 22.35 25.705 35.887 0 13.538-9.131 26.258-25.705 35.887-34.4 19.927-90.375 19.927-124.774 0l-.233.408.233-.408c-16.575-9.599-25.705-22.349-25.705-35.858 0-13.538 9.13-26.288 25.705-35.887C67.278 63.34 89.872 58.35 112.465 58.35z" fill="#2EC0FE"/><path d="M114.739 149.223l62.979-36.25c1.372-.791 2.076-1.811 2.058-2.777V98.839l-2.164 1.916-1.864-1.072c.211-.229.334-.44.299-.51-.106-.194-.915-1.6-.915-1.6L130.73 71.38l-14.126-8.21-5.524-1.6L46.43 98.7l.193 1.494-1.724.984-2.762-1.23-.017 11.286c-.018.809.457 1.582 1.46 2.162l62.715 36.18c2.164 1.248 5.946 1.09 8.444-.352zm25.561-28.005l-28.517 15.559-2.462-.123-47.622-26.634-13.194-6.804 62.153-35.775c.563-.334 1.442-.37 1.935-.07l60.481 34.878-32.774 18.969z" fill="url(#paint0_linear_713_1999)"/><path d="M114.739 149.223l62.979-36.25c1.372-.791 2.076-1.811 2.058-2.777V98.839l-2.164 1.916-1.864-1.072c.211-.229.334-.44.299-.51-.106-.194-.915-1.6-.915-1.6L130.73 71.38l-14.126-8.21-5.524-1.6L46.43 98.7l.193 1.494-1.724.984-2.762-1.23-.017 11.286c-.018.809.457 1.582 1.46 2.162l62.715 36.18c2.164 1.248 5.946 1.09 8.444-.352zm25.561-28.005l-28.517 15.559-2.462-.123-47.622-26.634-13.194-6.804 62.153-35.775c.563-.334 1.442-.37 1.935-.07l60.481 34.878-32.774 18.969z" fill="url(#paint1_linear_713_1999)"/><path opacity=".6" d="M110.183 150.401v-13.695l1.583.071 28.516-15.559 32.756-18.969-1.09-.633c1.02-.58 6.755-2.18 7.811-2.795v11.357c.017.967-.687 1.986-2.059 2.778l-62.979 36.25c-1.284.773-2.938 1.16-4.538 1.195z" fill="#0F054C"/><path d="M114.739 137.726l62.979-36.25c2.498-1.442 2.779-3.622.615-4.87l-62.715-36.162c-2.163-1.248-5.946-1.09-8.444.334l-62.979 36.25c-2.498 1.441-2.78 3.621-.615 4.87l62.715 36.18c2.163 1.248 5.946 1.09 8.444-.352zm-3.483-2.11c-.563.334-1.443.37-1.936.071l-61.606-35.53c-.493-.281-.44-.79.14-1.107l62.803-36.145c.563-.334 1.443-.37 1.936-.07l61.606 35.53c.493.28.44.79-.14 1.107l-62.803 36.144z" fill="url(#paint2_linear_713_1999)"/><path d="M114.739 137.726l62.979-36.25c2.498-1.442 2.779-3.622.615-4.87l-62.715-36.162c-2.163-1.248-5.946-1.09-8.444.334l-62.979 36.25c-2.498 1.441-2.78 3.621-.615 4.87l62.715 36.18c2.163 1.248 5.946 1.09 8.444-.352zm-3.483-2.11c-.563.334-1.443.37-1.936.071l-61.606-35.53c-.493-.281-.44-.79.14-1.107l62.803-36.145c.563-.334 1.443-.37 1.936-.07l61.606 35.53c.493.28.44.79-.14 1.107l-62.803 36.144z" fill="url(#paint3_linear_713_1999)"/><path d="M174.182 97.731l-61.589-35.53c-.493-.28-1.355-.245-1.935.071L47.855 98.417c-.458.263-.581.633-.352.931.07-.105.193-.21.352-.316l62.803-36.145c.563-.334 1.442-.369 1.935-.07l61.606 35.53a.756.756 0 01.212.193c.193-.282.14-.598-.229-.809z" fill="#42E8E0"/><path d="M177.718 100.878l-62.979 36.25c-2.498 1.442-6.281 1.6-8.444.334l-62.715-36.18c-.862-.492-1.32-1.125-1.425-1.81-.141.896.316 1.793 1.425 2.426l62.715 36.18c2.163 1.248 5.946 1.09 8.444-.334l62.979-36.251c1.513-.879 2.199-2.021 2.04-3.059-.14.862-.826 1.741-2.04 2.444z" fill="#42E8E0"/><path d="M112.575 67.388c-.492-.281-1.354-.246-1.935.07l-59.865 34.475-3.043-1.758c-.493-.281-.44-.791.14-1.108l62.804-36.144c.563-.334 1.442-.37 1.935-.07l61.606 35.529c.493.281.44.79-.14 1.107l-2.921 1.67-58.581-33.771z" fill="#251C72"/><path opacity=".7" d="M174.041 99.472c.563-.334.634-.827.141-1.108l-61.589-35.53c-.493-.28-1.355-.245-1.935.071L47.855 99.05c-.563.334-.633.826-.14 1.107l61.606 35.53c.493.281 1.355.246 1.935-.071l62.785-36.144z" fill="#42E8E0"/><path d="M114.739 129.604l62.979-36.25c1.372-.791 2.076-1.81 2.058-2.778V79.22l-2.164 1.917-1.864-1.073c.211-.228.334-.44.299-.51-.106-.193-.915-1.6-.915-1.6L130.73 51.76l-14.126-8.21-5.524-1.6-64.65 37.112.193 1.494-1.724.985-2.762-1.23-.017 11.303c-.018.81.457 1.583 1.46 2.163l62.715 36.18c2.164 1.23 5.946 1.09 8.444-.352zm25.561-28.005l-28.517 15.558-2.462-.123-47.622-26.616-13.194-6.803 62.153-35.776c.563-.334 1.442-.37 1.935-.07l60.481 34.878L140.3 101.6z" fill="url(#paint4_linear_713_1999)"/><path d="M114.739 129.604l62.979-36.25c1.372-.791 2.076-1.81 2.058-2.778V79.22l-2.164 1.917-1.864-1.073c.211-.228.334-.44.299-.51-.106-.193-.915-1.6-.915-1.6L130.73 51.76l-14.126-8.21-5.524-1.6-64.65 37.112.193 1.494-1.724.985-2.762-1.23-.017 11.303c-.018.81.457 1.583 1.46 2.163l62.715 36.18c2.164 1.23 5.946 1.09 8.444-.352zm25.561-28.005l-28.517 15.558-2.462-.123-47.622-26.616-13.194-6.803 62.153-35.776c.563-.334 1.442-.37 1.935-.07l60.481 34.878L140.3 101.6z" fill="url(#paint5_linear_713_1999)"/><path opacity=".6" d="M110.183 130.782v-13.695l1.583.07 28.516-15.558 32.756-18.97-1.09-.632c1.02-.58 6.755-2.18 7.811-2.795v11.356c.017.967-.687 1.987-2.059 2.778l-62.979 36.25c-1.284.756-2.938 1.161-4.538 1.196z" fill="#0F054C"/><path d="M114.739 118.107l62.979-36.25c2.498-1.442 2.779-3.622.615-4.87l-62.715-36.163c-2.163-1.248-5.946-1.09-8.444.334l-62.979 36.25c-2.498 1.442-2.78 3.622-.615 4.87l62.715 36.18c2.163 1.248 5.946 1.09 8.444-.351zm-3.483-2.11c-.563.334-1.443.369-1.936.07l-61.606-35.53c-.493-.28-.44-.79.14-1.107l62.803-36.144c.563-.334 1.443-.37 1.936-.07l61.606 35.529c.493.281.44.79-.14 1.107l-62.803 36.145z" fill="url(#paint6_linear_713_1999)"/><path d="M114.739 118.107l62.979-36.25c2.498-1.442 2.779-3.622.615-4.87l-62.715-36.163c-2.163-1.248-5.946-1.09-8.444.334l-62.979 36.25c-2.498 1.442-2.78 3.622-.615 4.87l62.715 36.18c2.163 1.248 5.946 1.09 8.444-.351zm-3.483-2.11c-.563.334-1.443.369-1.936.07l-61.606-35.53c-.493-.28-.44-.79.14-1.107l62.803-36.144c.563-.334 1.443-.37 1.936-.07l61.606 35.529c.493.281.44.79-.14 1.107l-62.803 36.145z" fill="url(#paint7_linear_713_1999)"/><path d="M174.182 78.112l-61.589-35.53c-.493-.281-1.355-.246-1.935.07L47.855 78.816c-.458.264-.581.633-.352.932.07-.106.193-.211.352-.317l62.803-36.145c.563-.333 1.442-.369 1.935-.07l61.606 35.53a.758.758 0 01.212.193c.193-.299.14-.615-.229-.826z" fill="#42E8E0"/><path d="M177.718 81.24l-62.979 36.251c-2.498 1.442-6.281 1.6-8.444.334L43.58 81.663c-.862-.492-1.32-1.125-1.425-1.81-.141.896.316 1.792 1.425 2.425l62.715 36.18c2.163 1.248 5.946 1.09 8.444-.334l62.979-36.25c1.513-.88 2.199-2.022 2.04-3.06-.14.845-.826 1.724-2.04 2.427z" fill="#42E8E0"/><path d="M112.575 47.751c-.492-.281-1.354-.246-1.935.07L50.775 82.296l-3.043-1.758c-.493-.281-.44-.791.14-1.108l62.804-36.144c.563-.334 1.442-.37 1.935-.07l61.606 35.529c.493.281.44.79-.14 1.107l-2.921 1.67-58.581-33.771z" fill="#251C72"/><path opacity=".7" d="M174.041 79.852c.563-.334.634-.826.141-1.107l-61.589-35.547c-.493-.282-1.355-.246-1.935.07L47.855 79.43c-.563.334-.633.827-.14 1.108l61.606 35.529c.493.282 1.355.246 1.935-.07l62.785-36.145z" fill="#42E8E0"/><path d="M114.739 109.967l62.979-36.25c1.372-.791 2.076-1.81 2.058-2.778V59.583l-2.164 1.916-1.864-1.073c.211-.228.334-.44.299-.51-.106-.193-.915-1.6-.915-1.6L130.73 32.123l-14.126-8.21-5.524-1.6-64.65 37.13.193 1.494-1.724 1.002-2.762-1.23-.017 11.269c-.018.808.457 1.582 1.46 2.162l62.715 36.18c2.164 1.248 5.946 1.09 8.444-.352zM140.3 81.98l-28.517 15.558-2.462-.123-47.622-26.616-13.194-6.804 62.153-35.775c.563-.334 1.442-.37 1.935-.07l60.481 34.878L140.3 81.98z" fill="url(#paint8_linear_713_1999)"/><path d="M114.739 109.967l62.979-36.25c1.372-.791 2.076-1.81 2.058-2.778V59.583l-2.164 1.916-1.864-1.073c.211-.228.334-.44.299-.51-.106-.193-.915-1.6-.915-1.6L130.73 32.123l-14.126-8.21-5.524-1.6-64.65 37.13.193 1.494-1.724 1.002-2.762-1.23-.017 11.269c-.018.808.457 1.582 1.46 2.162l62.715 36.18c2.164 1.248 5.946 1.09 8.444-.352zM140.3 81.98l-28.517 15.558-2.462-.123-47.622-26.616-13.194-6.804 62.153-35.775c.563-.334 1.442-.37 1.935-.07l60.481 34.878L140.3 81.98z" fill="url(#paint9_linear_713_1999)"/><path opacity=".6" d="M110.183 111.162V97.467l1.583.07L140.3 81.98l32.756-18.968-1.091-.633c1.021-.58 6.756-2.18 7.811-2.796V70.94c.018.967-.686 1.987-2.058 2.778l-62.979 36.25c-1.302.756-2.956 1.16-4.556 1.195z" fill="#0F054C"/><path d="M114.739 98.487l62.979-36.25c2.498-1.442 2.779-3.622.615-4.87l-62.715-36.18c-2.163-1.248-5.946-1.09-8.444.334L44.195 57.79c-2.498 1.442-2.78 3.622-.615 4.87l62.715 36.18c2.163 1.23 5.946 1.09 8.444-.352zm-3.483-2.127c-.563.334-1.443.37-1.936.07L47.714 60.918c-.493-.28-.44-.79.14-1.107l62.803-36.145c.563-.334 1.443-.369 1.936-.07l61.606 35.53c.493.28.44.79-.14 1.107L111.256 96.36z" fill="url(#paint10_linear_713_1999)"/><path d="M114.739 98.487l62.979-36.25c2.498-1.442 2.779-3.622.615-4.87l-62.715-36.18c-2.163-1.248-5.946-1.09-8.444.334L44.195 57.79c-2.498 1.442-2.78 3.622-.615 4.87l62.715 36.18c2.163 1.23 5.946 1.09 8.444-.352zm-3.483-2.127c-.563.334-1.443.37-1.936.07L47.714 60.918c-.493-.28-.44-.79.14-1.107l62.803-36.145c.563-.334 1.443-.369 1.936-.07l61.606 35.53c.493.28.44.79-.14 1.107L111.256 96.36z" fill="url(#paint11_linear_713_1999)"/><path d="M174.182 58.492l-61.589-35.529c-.493-.281-1.355-.246-1.935.07L47.855 59.178c-.458.281-.581.65-.352.932.07-.106.193-.211.352-.317l62.803-36.144c.563-.334 1.442-.37 1.935-.07l61.606 35.529a.755.755 0 01.212.193c.193-.299.14-.598-.229-.809z" fill="#42E8E0"/><path d="M177.718 61.622l-62.979 36.25c-2.498 1.441-6.281 1.6-8.444.334L43.58 62.043c-.862-.492-1.32-1.125-1.425-1.81-.141.896.316 1.793 1.425 2.426l62.715 36.18c2.163 1.248 5.946 1.09 8.444-.334l62.979-36.25c1.513-.88 2.199-2.022 2.04-3.06-.14.844-.826 1.723-2.04 2.427z" fill="#42E8E0"/><path d="M112.575 28.132c-.492-.282-1.354-.247-1.935.07L50.775 62.676l-3.043-1.758c-.493-.28-.44-.79.14-1.107l62.804-36.145c.563-.334 1.442-.369 1.935-.07l61.606 35.53c.493.28.44.79-.14 1.107l-2.921 1.67-58.581-33.771z" fill="#251C72"/><path opacity=".7" d="M174.041 60.215c.563-.334.634-.826.141-1.107l-61.589-35.53c-.493-.281-1.355-.246-1.935.07L47.855 59.794c-.563.334-.633.827-.14 1.108l61.606 35.53c.493.28 1.355.245 1.935-.071l62.785-36.145z" fill="#42E8E0"/><path d="M114.739 90.348l62.979-36.25c1.372-.792 2.076-1.811 2.058-2.778V39.963l-2.164 1.916-1.864-1.072c.211-.229.334-.44.299-.51-.106-.193-.915-1.6-.915-1.6L130.73 12.503l-14.126-8.21-5.524-1.6-64.65 37.13.193 1.494-1.724.984-2.762-1.23-.017 11.286c-.018.809.457 1.582 1.46 2.162l62.715 36.18c2.164 1.249 5.946 1.09 8.444-.351zM140.3 62.36l-28.517 15.56-2.462-.123-47.622-26.634-13.194-6.804 62.153-35.775c.563-.334 1.442-.37 1.935-.07l60.481 34.878-32.774 18.97z" fill="url(#paint12_linear_713_1999)"/><path d="M114.739 90.348l62.979-36.25c1.372-.792 2.076-1.811 2.058-2.778V39.963l-2.164 1.916-1.864-1.072c.211-.229.334-.44.299-.51-.106-.193-.915-1.6-.915-1.6L130.73 12.503l-14.126-8.21-5.524-1.6-64.65 37.13.193 1.494-1.724.984-2.762-1.23-.017 11.286c-.018.809.457 1.582 1.46 2.162l62.715 36.18c2.164 1.249 5.946 1.09 8.444-.351zM140.3 62.36l-28.517 15.56-2.462-.123-47.622-26.634-13.194-6.804 62.153-35.775c.563-.334 1.442-.37 1.935-.07l60.481 34.878-32.774 18.97z" fill="url(#paint13_linear_713_1999)"/><path opacity=".6" d="M110.183 91.525V77.831l1.583.07 28.516-15.558 32.756-18.97-1.09-.632c1.02-.58 6.755-2.18 7.811-2.796v11.357c.017.967-.687 1.987-2.059 2.778l-62.979 36.25c-1.284.774-2.938 1.16-4.538 1.195z" fill="#0F054C"/><path d="M114.739 78.868l62.979-36.25c2.498-1.442 2.779-3.622.615-4.87l-62.715-36.18c-2.163-1.248-5.946-1.09-8.444.334l-62.979 36.25c-2.498 1.442-2.78 3.622-.615 4.87l62.715 36.18c2.163 1.248 5.946 1.107 8.444-.334zm-3.483-2.127c-.563.334-1.443.369-1.936.07L47.714 41.28c-.493-.28-.44-.79.14-1.107l62.803-36.145c.563-.334 1.443-.369 1.936-.07l61.606 35.53c.493.28.44.79-.14 1.107L111.256 76.74z" fill="url(#paint14_linear_713_1999)"/><path d="M114.739 78.868l62.979-36.25c2.498-1.442 2.779-3.622.615-4.87l-62.715-36.18c-2.163-1.248-5.946-1.09-8.444.334l-62.979 36.25c-2.498 1.442-2.78 3.622-.615 4.87l62.715 36.18c2.163 1.248 5.946 1.107 8.444-.334zm-3.483-2.127c-.563.334-1.443.369-1.936.07L47.714 41.28c-.493-.28-.44-.79.14-1.107l62.803-36.145c.563-.334 1.443-.369 1.936-.07l61.606 35.53c.493.28.44.79-.14 1.107L111.256 76.74z" fill="url(#paint15_linear_713_1999)"/><path d="M174.182 38.873l-61.589-35.53c-.493-.28-1.355-.245-1.935.071L47.855 39.559c-.458.263-.581.65-.352.931.07-.105.193-.21.352-.316l62.803-36.145c.563-.334 1.442-.369 1.935-.07l61.606 35.53a.756.756 0 01.212.193c.193-.3.14-.616-.229-.809z" fill="#42E8E0"/><path d="M177.718 42.002l-62.979 36.25c-2.498 1.442-6.281 1.6-8.444.335L43.58 42.407c-.862-.493-1.32-1.125-1.425-1.811-.141.897.316 1.793 1.425 2.426l62.715 36.18c2.163 1.248 5.946 1.09 8.444-.334l62.979-36.25c1.513-.88 2.199-2.022 2.04-3.06-.14.862-.826 1.741-2.04 2.444z" fill="#42E8E0"/><path d="M112.575 8.512c-.492-.281-1.354-.246-1.935.07L50.775 43.058 47.732 41.3c-.493-.281-.44-.791.14-1.107l62.804-36.145c.563-.334 1.442-.37 1.935-.07l61.606 35.529c.493.281.44.791-.14 1.108l-2.921 1.67-58.581-33.772z" fill="#251C72"/><path opacity=".7" d="M174.041 40.596c.563-.334.634-.826.141-1.108l-61.589-35.53c-.493-.28-1.355-.245-1.935.071L47.855 40.174c-.563.334-.633.826-.14 1.108L109.32 76.81c.493.281 1.355.246 1.935-.07l62.785-36.145z" fill="#42E8E0"/><defs><linearGradient id="paint0_linear_713_1999" x1="99.238" y1="84.998" x2="131.17" y2="140.473" gradientUnits="userSpaceOnUse"><stop stop-color="#BCBEFF"/><stop offset=".166" stop-color="#B6B8FC"/><stop offset=".396" stop-color="#A4A8F5"/><stop offset=".662" stop-color="#868DEA"/><stop offset=".955" stop-color="#5E67DA"/><stop offset="1" stop-color="#5761D7"/></linearGradient><linearGradient id="paint1_linear_713_1999" x1="99.238" y1="84.998" x2="131.17" y2="140.473" gradientUnits="userSpaceOnUse"><stop stop-color="#706EC4"/><stop offset=".022" stop-color="#6D6BC2"/><stop offset=".251" stop-color="#5651AC"/><stop offset=".486" stop-color="#463F9D"/><stop offset=".731" stop-color="#3C3494"/><stop offset="1" stop-color="#393091"/></linearGradient><linearGradient id="paint2_linear_713_1999" x1="93.359" y1="68.731" x2="128.515" y2="129.807" gradientUnits="userSpaceOnUse"><stop stop-color="#BCBEFF"/><stop offset=".166" stop-color="#B6B8FC"/><stop offset=".396" stop-color="#A4A8F5"/><stop offset=".662" stop-color="#868DEA"/><stop offset=".955" stop-color="#5E67DA"/><stop offset="1" stop-color="#5761D7"/></linearGradient><linearGradient id="paint3_linear_713_1999" x1="88.499" y1="60.299" x2="151.925" y2="170.489" gradientUnits="userSpaceOnUse"><stop stop-color="#706EC4"/><stop offset=".022" stop-color="#6D6BC2"/><stop offset=".251" stop-color="#5651AC"/><stop offset=".486" stop-color="#463F9D"/><stop offset=".731" stop-color="#3C3494"/><stop offset="1" stop-color="#393091"/></linearGradient><linearGradient id="paint4_linear_713_1999" x1="99.238" y1="65.374" x2="131.17" y2="120.849" gradientUnits="userSpaceOnUse"><stop stop-color="#BCBEFF"/><stop offset=".166" stop-color="#B6B8FC"/><stop offset=".396" stop-color="#A4A8F5"/><stop offset=".662" stop-color="#868DEA"/><stop offset=".955" stop-color="#5E67DA"/><stop offset="1" stop-color="#5761D7"/></linearGradient><linearGradient id="paint5_linear_713_1999" x1="99.238" y1="65.374" x2="131.17" y2="120.849" gradientUnits="userSpaceOnUse"><stop stop-color="#706EC4"/><stop offset=".022" stop-color="#6D6BC2"/><stop offset=".251" stop-color="#5651AC"/><stop offset=".486" stop-color="#463F9D"/><stop offset=".731" stop-color="#3C3494"/><stop offset="1" stop-color="#393091"/></linearGradient><linearGradient id="paint6_linear_713_1999" x1="93.359" y1="49.107" x2="128.515" y2="110.183" gradientUnits="userSpaceOnUse"><stop stop-color="#BCBEFF"/><stop offset=".166" stop-color="#B6B8FC"/><stop offset=".396" stop-color="#A4A8F5"/><stop offset=".662" stop-color="#868DEA"/><stop offset=".955" stop-color="#5E67DA"/><stop offset="1" stop-color="#5761D7"/></linearGradient><linearGradient id="paint7_linear_713_1999" x1="88.499" y1="40.675" x2="151.925" y2="150.865" gradientUnits="userSpaceOnUse"><stop stop-color="#706EC4"/><stop offset=".022" stop-color="#6D6BC2"/><stop offset=".251" stop-color="#5651AC"/><stop offset=".486" stop-color="#463F9D"/><stop offset=".731" stop-color="#3C3494"/><stop offset="1" stop-color="#393091"/></linearGradient><linearGradient id="paint8_linear_713_1999" x1="99.238" y1="45.75" x2="131.17" y2="101.225" gradientUnits="userSpaceOnUse"><stop stop-color="#BCBEFF"/><stop offset=".166" stop-color="#B6B8FC"/><stop offset=".396" stop-color="#A4A8F5"/><stop offset=".662" stop-color="#868DEA"/><stop offset=".955" stop-color="#5E67DA"/><stop offset="1" stop-color="#5761D7"/></linearGradient><linearGradient id="paint9_linear_713_1999" x1="99.238" y1="45.75" x2="131.17" y2="101.225" gradientUnits="userSpaceOnUse"><stop stop-color="#706EC4"/><stop offset=".022" stop-color="#6D6BC2"/><stop offset=".251" stop-color="#5651AC"/><stop offset=".486" stop-color="#463F9D"/><stop offset=".731" stop-color="#3C3494"/><stop offset="1" stop-color="#393091"/></linearGradient><linearGradient id="paint10_linear_713_1999" x1="93.359" y1="29.483" x2="128.515" y2="90.559" gradientUnits="userSpaceOnUse"><stop stop-color="#BCBEFF"/><stop offset=".166" stop-color="#B6B8FC"/><stop offset=".396" stop-color="#A4A8F5"/><stop offset=".662" stop-color="#868DEA"/><stop offset=".955" stop-color="#5E67DA"/><stop offset="1" stop-color="#5761D7"/></linearGradient><linearGradient id="paint11_linear_713_1999" x1="88.499" y1="21.051" x2="151.925" y2="131.24" gradientUnits="userSpaceOnUse"><stop stop-color="#706EC4"/><stop offset=".022" stop-color="#6D6BC2"/><stop offset=".251" stop-color="#5651AC"/><stop offset=".486" stop-color="#463F9D"/><stop offset=".731" stop-color="#3C3494"/><stop offset="1" stop-color="#393091"/></linearGradient><linearGradient id="paint12_linear_713_1999" x1="99.238" y1="26.126" x2="131.17" y2="81.6" gradientUnits="userSpaceOnUse"><stop stop-color="#BCBEFF"/><stop offset=".166" stop-color="#B6B8FC"/><stop offset=".396" stop-color="#A4A8F5"/><stop offset=".662" stop-color="#868DEA"/><stop offset=".955" stop-color="#5E67DA"/><stop offset="1" stop-color="#5761D7"/></linearGradient><linearGradient id="paint13_linear_713_1999" x1="99.238" y1="26.126" x2="131.17" y2="81.6" gradientUnits="userSpaceOnUse"><stop stop-color="#706EC4"/><stop offset=".022" stop-color="#6D6BC2"/><stop offset=".251" stop-color="#5651AC"/><stop offset=".486" stop-color="#463F9D"/><stop offset=".731" stop-color="#3C3494"/><stop offset="1" stop-color="#393091"/></linearGradient><linearGradient id="paint14_linear_713_1999" x1="93.359" y1="9.859" x2="128.515" y2="70.935" gradientUnits="userSpaceOnUse"><stop stop-color="#BCBEFF"/><stop offset=".166" stop-color="#B6B8FC"/><stop offset=".396" stop-color="#A4A8F5"/><stop offset=".662" stop-color="#868DEA"/><stop offset=".955" stop-color="#5E67DA"/><stop offset="1" stop-color="#5761D7"/></linearGradient><linearGradient id="paint15_linear_713_1999" x1="88.499" y1="1.427" x2="151.925" y2="111.616" gradientUnits="userSpaceOnUse"><stop stop-color="#706EC4"/><stop offset=".022" stop-color="#6D6BC2"/><stop offset=".251" stop-color="#5651AC"/><stop offset=".486" stop-color="#463F9D"/><stop offset=".731" stop-color="#3C3494"/><stop offset="1" stop-color="#393091"/></linearGradient></defs></svg>