<svg width="30" height="30" fill="none" xmlns="http://www.w3.org/2000/svg"><path d="M25.585 4.289c-.376-.334-.965-.382-1.575-.125-.642.27-18.144 8.147-18.857 8.468-.13.048-1.261.49-1.145 1.478.104.89 1.014 1.258 1.125 1.3l4.45 1.6c.295 1.03 1.383 4.835 1.624 5.647.15.507.395 1.173.824 1.31.376.152.75.013.992-.187l2.72-2.647 4.393 3.594.104.065c.298.139.584.208.857.208.21 0 .413-.041.606-.124.658-.284.92-.942.948-1.016l3.28-17.89c.201-.956-.077-1.442-.346-1.681zm-12.078 13.36l-1.5 4.2-1.502-5.25 11.508-8.925-8.506 9.975z" fill="#fff"/></svg>