<svg width="30" height="30" fill="none" xmlns="http://www.w3.org/2000/svg"><path d="M28 6.485a10.73 10.73 0 01-3.066.836 5.32 5.32 0 002.347-2.932 10.75 10.75 0 01-3.388 1.285A5.337 5.337 0 0020 4c-2.946 0-5.335 2.372-5.335 5.3 0 .416.048.82.14 1.21A15.177 15.177 0 013.81 4.968a5.294 5.294 0 001.65 7.082 5.354 5.354 0 01-2.417-.665v.067c0 2.57 1.84 4.71 4.277 5.2a5.37 5.37 0 01-2.41.089 5.342 5.342 0 004.984 3.683 10.735 10.735 0 01-6.624 2.268c-.432 0-.856-.024-1.271-.075A15.138 15.138 0 0010.176 25c9.812 0 15.178-8.078 15.178-15.083 0-.23-.006-.461-.015-.687A10.806 10.806 0 0028 6.485z" fill="#fff"/></svg>