<svg width="30" height="30" viewBox="0 0 30 30" fill="none" xmlns="http://www.w3.org/2000/svg">
<path d="M24.9752 6.46154C22.5869 4.53967 18.8088 4.21389 18.6471 4.20217C18.3963 4.18108 18.1572 4.3217 18.0541 4.55373C18.0447 4.56779 17.9627 4.75764 17.8713 5.05295C19.451 5.32014 21.3916 5.85686 23.1471 6.9467C23.4283 7.12014 23.515 7.49045 23.3416 7.7717C23.2268 7.95686 23.0322 8.05764 22.8307 8.05764C22.7229 8.05764 22.6127 8.02717 22.5143 7.96623C19.4955 6.09358 15.7268 5.99983 15.0002 5.99983C14.2736 5.99983 10.5025 6.09358 7.48613 7.96623C7.20488 8.14201 6.83457 8.05529 6.66113 7.77404C6.48535 7.49045 6.57207 7.12248 6.85332 6.9467C8.60879 5.8592 10.5494 5.32014 12.1291 5.05529C12.0377 4.75764 11.9557 4.57014 11.9486 4.55373C11.8432 4.3217 11.6064 4.17639 11.3533 4.20217C11.1916 4.21389 7.41348 4.53967 4.99238 6.48733C3.7291 7.65686 1.2002 14.4912 1.2002 20.3998C1.2002 20.5053 1.22832 20.6061 1.27988 20.6975C3.02363 23.7631 7.78379 24.5647 8.86894 24.5998C8.87363 24.5998 8.88066 24.5998 8.88769 24.5998C9.07988 24.5998 9.26035 24.5084 9.37285 24.3537L10.4697 22.8444C7.50957 22.0803 5.99785 20.7819 5.91113 20.7045C5.6627 20.4865 5.63926 20.1069 5.85957 19.8584C6.07754 19.61 6.45723 19.5865 6.70566 19.8045C6.74082 19.8373 9.5252 22.1998 15.0002 22.1998C20.4846 22.1998 23.2689 19.828 23.2971 19.8045C23.5455 19.5889 23.9228 19.61 24.1432 19.8608C24.3611 20.1092 24.3377 20.4865 24.0893 20.7045C24.0025 20.7819 22.4908 22.0803 19.5307 22.8444L20.6275 24.3537C20.74 24.5084 20.9205 24.5998 21.1127 24.5998C21.1197 24.5998 21.1268 24.5998 21.1314 24.5998C22.2166 24.5647 26.9768 23.7631 28.7205 20.6975C28.7721 20.6061 28.8002 20.5053 28.8002 20.3998C28.8002 14.4912 26.2713 7.65686 24.9752 6.46154ZM11.1002 17.9998C9.94004 17.9998 9.0002 16.9264 9.0002 15.5998C9.0002 14.2733 9.94004 13.1998 11.1002 13.1998C12.2604 13.1998 13.2002 14.2733 13.2002 15.5998C13.2002 16.9264 12.2604 17.9998 11.1002 17.9998ZM18.9002 17.9998C17.74 17.9998 16.8002 16.9264 16.8002 15.5998C16.8002 14.2733 17.74 13.1998 18.9002 13.1998C20.0604 13.1998 21.0002 14.2733 21.0002 15.5998C21.0002 16.9264 20.0604 17.9998 18.9002 17.9998Z" fill="white"/>
</svg>
