<svg width="152" height="82" viewBox="0 0 152 82" fill="none" xmlns="http://www.w3.org/2000/svg">
<g clip-path="url(#clip0_610_1938)">
<path d="M44.9789 81.1261C34.696 77.8018 30.7075 72.9384 13.8809 43.081L-0.0166016 18.518L2.53854 14.578C7.64883 6.75973 15.5636 1.15762 22.7927 0.172638C30.2712 -0.812347 39.4947 3.25072 45.2282 10.1456C48.0949 13.5931 48.0949 13.7162 46.7862 16.1786L45.4775 18.7027L58.0039 40.8648C64.9215 53.054 71.2159 64.1967 72.0884 65.6126L73.6464 68.1982L69.5955 72.569C62.304 80.4489 52.9559 83.6501 44.9789 81.1261ZM97.1413 81.4955C86.0482 78.6636 81.9973 73.9234 65.1708 44.1276C57.5053 30.7072 51.2733 19.1336 51.2733 18.4564C51.2733 16.0555 58.6271 7.25222 63.0519 4.42039C71.1535 -0.812347 79.0683 -1.3664 86.983 2.88135C92.9035 6.08255 98.0137 12.054 104.557 23.566C107.736 29.1066 114.092 40.3108 118.704 48.3753L127.055 63.0886L125.31 66.2282C122.693 70.9069 116.461 76.9399 111.787 79.2792C107.237 81.557 100.943 82.4804 97.1413 81.4955ZM117.146 36.3093C110.478 24.4895 104.994 14.3934 104.994 13.8393C104.994 11.9925 112.721 4.60507 116.959 2.45042C122.817 -0.566101 130.981 -0.566101 136.777 2.45042C142.448 5.40537 152.046 15.563 152.046 18.5795C152.046 19.7492 130.483 57.7943 129.86 57.7327C129.548 57.7327 123.814 48.1291 117.146 36.3093Z" fill="url(#paint0_linear_610_1938)"/>
</g>
<defs>
<linearGradient id="paint0_linear_610_1938" x1="141.242" y1="-1.40376" x2="-12.7666" y2="84.6913" gradientUnits="userSpaceOnUse">
<stop stop-color="#A235FF"/>
<stop offset="0.2681" stop-color="#716CFE"/>
<stop offset="0.4882" stop-color="#4E98FD"/>
<stop offset="0.6884" stop-color="#2CC1FD"/>
<stop offset="0.8186" stop-color="#21D2FE"/>
<stop offset="1" stop-color="#21D2FE"/>
</linearGradient>
<clipPath id="clip0_610_1938">
<rect width="152" height="82" fill="white"/>
</clipPath>
</defs>
</svg>
