<svg width="226" height="177" viewBox="0 0 226 177" fill="none" xmlns="http://www.w3.org/2000/svg">
<path opacity="0.4" d="M112.837 176.944C141.649 176.944 170.461 170.603 192.397 157.89C213.724 145.526 225.504 129.09 225.504 111.577C225.504 94.0646 213.753 77.5992 192.397 65.2647C148.526 39.8685 77.1476 39.8685 33.2472 65.2647C11.8917 77.6283 0.140457 94.0646 0.140457 111.577C0.140457 129.09 11.8917 145.555 33.2181 157.89C55.1829 170.603 83.9953 176.944 112.837 176.944ZM112.837 47.1121C141.475 47.1121 170.142 53.4248 191.933 66.0502C212.969 78.2392 224.575 94.4137 224.575 111.577C224.575 128.741 212.998 144.915 191.933 157.104C148.323 182.355 77.3217 182.355 33.7113 157.104C12.6751 144.915 1.06888 128.741 1.06888 111.577C1.06888 94.3846 12.6461 78.2392 33.7113 66.0502C55.531 53.4248 84.1694 47.1121 112.837 47.1121Z" fill="#2EC0FE"/>
<path d="M112.436 160.904C135.204 160.904 157.944 155.886 175.274 145.849C192.139 136.075 201.444 123.063 201.444 109.175C201.444 95.287 192.139 82.2745 175.274 72.5005C140.613 52.4273 84.2305 52.4273 49.5695 72.5005C32.7042 82.2745 23.3992 95.3162 23.3992 109.175C23.3992 123.034 32.7042 136.075 49.5695 145.849C66.9291 155.886 89.6972 160.904 112.436 160.904ZM112.465 58.35C135.059 58.35 157.653 63.3392 174.838 73.2882C191.412 82.8872 200.543 95.6371 200.543 109.175C200.543 122.713 191.412 135.433 174.838 145.062C140.438 164.989 84.4631 164.989 50.0637 145.062L49.8312 145.47L50.0637 145.062C33.4892 135.463 24.3587 122.713 24.3587 109.204C24.3587 95.6663 33.4892 82.9164 50.0637 73.3174C67.278 63.3391 89.8717 58.35 112.465 58.35Z" fill="#2EC0FE"/>
<path d="M114.739 149.223L177.718 112.973C179.09 112.182 179.794 111.162 179.776 110.196V98.8388L177.612 100.755L175.748 99.6827C175.959 99.4541 176.082 99.2432 176.047 99.1728C175.941 98.9795 175.132 97.5731 175.132 97.5731L130.73 71.3787L116.604 63.1688L111.08 61.569L46.4296 98.6982L46.6231 100.193L44.8991 101.177L42.1372 99.9464L42.1196 111.233C42.102 112.042 42.577 112.815 43.5797 113.395L106.295 149.575C108.459 150.823 112.241 150.665 114.739 149.223ZM140.3 121.218L111.783 136.777L109.321 136.654L61.6994 110.02L48.5055 103.216L110.658 67.4407C111.221 67.1067 112.1 67.0716 112.593 67.3704L173.074 102.249L140.3 121.218Z" fill="url(#paint0_linear_713_1999)"/>
<path d="M114.739 149.223L177.718 112.973C179.09 112.182 179.794 111.162 179.776 110.196V98.8388L177.612 100.755L175.748 99.6827C175.959 99.4541 176.082 99.2432 176.047 99.1728C175.941 98.9795 175.132 97.5731 175.132 97.5731L130.73 71.3787L116.604 63.1688L111.08 61.569L46.4296 98.6982L46.6231 100.193L44.8991 101.177L42.1372 99.9464L42.1196 111.233C42.102 112.042 42.577 112.815 43.5797 113.395L106.295 149.575C108.459 150.823 112.241 150.665 114.739 149.223ZM140.3 121.218L111.783 136.777L109.321 136.654L61.6994 110.02L48.5055 103.216L110.658 67.4407C111.221 67.1067 112.1 67.0716 112.593 67.3704L173.074 102.249L140.3 121.218Z" fill="url(#paint1_linear_713_1999)"/>
<path opacity="0.6" d="M110.183 150.401V136.706L111.766 136.777L140.282 121.218L173.038 102.249L171.948 101.616C172.968 101.036 178.703 99.4365 179.759 98.8212V109.352V110.178C179.776 111.145 179.072 112.164 177.7 112.956L114.721 149.206C113.437 149.979 111.783 150.366 110.183 150.401Z" fill="#0F054C"/>
<path d="M114.739 137.726L177.718 101.476C180.216 100.034 180.497 97.8542 178.333 96.6061L115.618 60.4438C113.455 59.1956 109.672 59.3538 107.174 60.7778L44.1953 97.028C41.6972 98.4695 41.4157 100.649 43.5795 101.898L106.295 138.078C108.458 139.326 112.241 139.168 114.739 137.726ZM111.256 135.616C110.693 135.95 109.813 135.986 109.32 135.687L47.7136 100.157C47.2211 99.876 47.2738 99.3661 47.8544 99.0497L110.657 62.905C111.22 62.571 112.1 62.5358 112.593 62.8347L174.199 98.3641C174.692 98.6454 174.639 99.1552 174.059 99.4716L111.256 135.616Z" fill="url(#paint2_linear_713_1999)"/>
<path d="M114.739 137.726L177.718 101.476C180.216 100.034 180.497 97.8542 178.333 96.6061L115.618 60.4438C113.455 59.1956 109.672 59.3538 107.174 60.7778L44.1953 97.028C41.6972 98.4695 41.4157 100.649 43.5795 101.898L106.295 138.078C108.458 139.326 112.241 139.168 114.739 137.726ZM111.256 135.616C110.693 135.95 109.813 135.986 109.32 135.687L47.7136 100.157C47.2211 99.876 47.2738 99.3661 47.8544 99.0497L110.657 62.905C111.22 62.571 112.1 62.5358 112.593 62.8347L174.199 98.3641C174.692 98.6454 174.639 99.1552 174.059 99.4716L111.256 135.616Z" fill="url(#paint3_linear_713_1999)"/>
<path d="M174.182 97.7311L112.593 62.2017C112.1 61.9204 111.238 61.9556 110.658 62.272L47.8546 98.4168C47.3972 98.6805 47.274 99.0497 47.5027 99.3485C47.5731 99.243 47.6962 99.1376 47.8546 99.0321L110.658 62.8873C111.221 62.5533 112.1 62.5182 112.593 62.817L174.199 98.3465C174.287 98.3992 174.358 98.4695 174.411 98.5398C174.604 98.2585 174.551 97.9421 174.182 97.7311Z" fill="#42E8E0"/>
<path d="M177.718 100.878L114.739 137.128C112.241 138.57 108.458 138.728 106.295 137.462L43.5796 101.282C42.7176 100.79 42.2602 100.157 42.1546 99.4717C42.0139 100.368 42.4713 101.265 43.5796 101.898L106.295 138.078C108.458 139.326 112.241 139.168 114.739 137.744L177.718 101.493C179.231 100.614 179.917 99.4717 179.758 98.4344C179.618 99.2959 178.932 100.175 177.718 100.878Z" fill="#42E8E0"/>
<path d="M112.575 67.3879C112.083 67.1066 111.221 67.1418 110.64 67.4582L50.7752 101.933L47.7318 100.175C47.2392 99.8936 47.292 99.3837 47.8725 99.0673L110.676 62.9226C111.239 62.5886 112.118 62.5534 112.611 62.8523L174.217 98.3817C174.71 98.663 174.657 99.1728 174.077 99.4892L171.156 101.159L112.575 67.3879Z" fill="#251C72"/>
<path opacity="0.7" d="M174.041 99.4716C174.604 99.1376 174.675 98.6454 174.182 98.3641L112.593 62.8346C112.1 62.5534 111.238 62.5885 110.658 62.905L47.8549 99.0497C47.292 99.3837 47.2216 99.876 47.7142 100.157L109.321 135.687C109.814 135.968 110.676 135.933 111.256 135.616L174.041 99.4716Z" fill="#42E8E0"/>
<path d="M114.739 129.604L177.718 93.3538C179.09 92.5627 179.794 91.5431 179.776 90.5762V79.2194L177.612 81.1357L175.748 80.0633C175.959 79.8347 176.082 79.6238 176.047 79.5535C175.941 79.3601 175.132 77.9537 175.132 77.9537L130.73 51.7593L116.604 43.5494L111.08 41.9496L46.4296 79.0612L46.6231 80.5555L44.8991 81.54L42.1372 80.3094L42.1196 91.6134C42.102 92.4221 42.577 93.1956 43.5797 93.7758L106.295 129.956C108.459 131.186 112.241 131.046 114.739 129.604ZM140.3 101.599L111.783 117.157L109.321 117.034L61.6994 90.418L48.5055 83.6145L110.658 47.8389C111.221 47.5049 112.1 47.4697 112.593 47.7686L173.074 82.6475L140.3 101.599Z" fill="url(#paint4_linear_713_1999)"/>
<path d="M114.739 129.604L177.718 93.3538C179.09 92.5627 179.794 91.5431 179.776 90.5762V79.2194L177.612 81.1357L175.748 80.0633C175.959 79.8347 176.082 79.6238 176.047 79.5535C175.941 79.3601 175.132 77.9537 175.132 77.9537L130.73 51.7593L116.604 43.5494L111.08 41.9496L46.4296 79.0612L46.6231 80.5555L44.8991 81.54L42.1372 80.3094L42.1196 91.6134C42.102 92.4221 42.577 93.1956 43.5797 93.7758L106.295 129.956C108.459 131.186 112.241 131.046 114.739 129.604ZM140.3 101.599L111.783 117.157L109.321 117.034L61.6994 90.418L48.5055 83.6145L110.658 47.8389C111.221 47.5049 112.1 47.4697 112.593 47.7686L173.074 82.6475L140.3 101.599Z" fill="url(#paint5_linear_713_1999)"/>
<path opacity="0.6" d="M110.183 130.782V117.087L111.766 117.157L140.282 101.599L173.038 82.6299L171.948 81.997C172.968 81.4169 178.703 79.8171 179.759 79.2018V89.7323V90.5585C179.776 91.5254 179.072 92.5451 177.7 93.3362L114.721 129.586C113.437 130.342 111.783 130.747 110.183 130.782Z" fill="#0F054C"/>
<path d="M114.739 118.107L177.718 81.8564C180.216 80.4148 180.497 78.2349 178.333 76.9867L115.618 40.8244C113.455 39.5762 109.672 39.7344 107.174 41.1584L44.1953 77.4086C41.6972 78.8502 41.4157 81.0301 43.5795 82.2783L106.295 118.458C108.458 119.706 112.241 119.548 114.739 118.107ZM111.256 115.997C110.693 116.331 109.813 116.366 109.32 116.067L47.7136 80.5379C47.2211 80.2566 47.2738 79.7468 47.8544 79.4303L110.657 43.2856C111.22 42.9516 112.1 42.9164 112.593 43.2153L174.199 78.7447C174.692 79.026 174.639 79.5358 174.059 79.8522L111.256 115.997Z" fill="url(#paint6_linear_713_1999)"/>
<path d="M114.739 118.107L177.718 81.8564C180.216 80.4148 180.497 78.2349 178.333 76.9867L115.618 40.8244C113.455 39.5762 109.672 39.7344 107.174 41.1584L44.1953 77.4086C41.6972 78.8502 41.4157 81.0301 43.5795 82.2783L106.295 118.458C108.458 119.706 112.241 119.548 114.739 118.107ZM111.256 115.997C110.693 116.331 109.813 116.366 109.32 116.067L47.7136 80.5379C47.2211 80.2566 47.2738 79.7468 47.8544 79.4303L110.657 43.2856C111.22 42.9516 112.1 42.9164 112.593 43.2153L174.199 78.7447C174.692 79.026 174.639 79.5358 174.059 79.8522L111.256 115.997Z" fill="url(#paint7_linear_713_1999)"/>
<path d="M174.182 78.1117L112.593 42.5823C112.1 42.301 111.238 42.3362 110.658 42.6527L47.8546 78.8149C47.3972 79.0786 47.274 79.4478 47.5027 79.7467C47.5731 79.6412 47.6962 79.5357 47.8546 79.4303L110.658 43.2855C111.221 42.9515 112.1 42.9164 112.593 43.2152L174.199 78.7446C174.287 78.7974 174.358 78.8677 174.411 78.938C174.604 78.6391 174.551 78.3227 174.182 78.1117Z" fill="#42E8E0"/>
<path d="M177.718 81.2409L114.739 117.491C112.241 118.933 108.458 119.091 106.295 117.825L43.5796 81.6628C42.7176 81.1706 42.2602 80.5377 42.1546 79.8521C42.0139 80.7486 42.4713 81.6452 43.5796 82.2781L106.295 118.458C108.458 119.706 112.241 119.548 114.739 118.124L177.718 81.8738C179.231 80.9948 179.917 79.852 179.758 78.8148C179.618 79.6587 178.932 80.5377 177.718 81.2409Z" fill="#42E8E0"/>
<path d="M112.575 47.751C112.083 47.4697 111.221 47.5048 110.64 47.8213L50.7752 82.2959L47.7318 80.5379C47.2392 80.2566 47.292 79.7468 47.8725 79.4303L110.676 43.2856C111.239 42.9516 112.118 42.9164 112.611 43.2153L174.217 78.7447C174.71 79.026 174.657 79.5358 174.077 79.8522L171.156 81.5224L112.575 47.751Z" fill="#251C72"/>
<path opacity="0.7" d="M174.041 79.8522C174.604 79.5182 174.675 79.026 174.182 78.7447L112.593 43.1977C112.1 42.9164 111.238 42.9516 110.658 43.268L47.8549 79.4303C47.292 79.7643 47.2216 80.2566 47.7142 80.5379L109.321 116.067C109.814 116.349 110.676 116.313 111.256 115.997L174.041 79.8522Z" fill="#42E8E0"/>
<path d="M114.739 109.967L177.718 73.7169C179.09 72.9258 179.794 71.9061 179.776 70.9392V59.5825L177.612 61.4987L175.748 60.4263C175.959 60.1978 176.082 59.9868 176.047 59.9165C175.941 59.7231 175.132 58.3167 175.132 58.3167L130.73 32.1223L116.604 23.9124L111.08 22.3126L46.4296 59.4418L46.6231 60.9361L44.8991 61.9382L42.1372 60.7076L42.1196 71.9765C42.102 72.7851 42.577 73.5587 43.5797 74.1388L106.295 110.319C108.459 111.567 112.241 111.409 114.739 109.967ZM140.3 81.9795L111.783 97.5379L109.321 97.4149L61.6994 70.7986L48.5055 63.9951L110.658 28.2195C111.221 27.8855 112.1 27.8504 112.593 28.1492L173.074 63.0282L140.3 81.9795Z" fill="url(#paint8_linear_713_1999)"/>
<path d="M114.739 109.967L177.718 73.7169C179.09 72.9258 179.794 71.9061 179.776 70.9392V59.5825L177.612 61.4987L175.748 60.4263C175.959 60.1978 176.082 59.9868 176.047 59.9165C175.941 59.7231 175.132 58.3167 175.132 58.3167L130.73 32.1223L116.604 23.9124L111.08 22.3126L46.4296 59.4418L46.6231 60.9361L44.8991 61.9382L42.1372 60.7076L42.1196 71.9765C42.102 72.7851 42.577 73.5587 43.5797 74.1388L106.295 110.319C108.459 111.567 112.241 111.409 114.739 109.967ZM140.3 81.9795L111.783 97.5379L109.321 97.4149L61.6994 70.7986L48.5055 63.9951L110.658 28.2195C111.221 27.8855 112.1 27.8504 112.593 28.1492L173.074 63.0282L140.3 81.9795Z" fill="url(#paint9_linear_713_1999)"/>
<path opacity="0.6" d="M110.183 111.162V97.4675L111.766 97.5379L140.3 81.9795L173.056 63.0105L171.965 62.3776C172.986 61.7975 178.721 60.1977 179.776 59.5824V70.1129V70.9392C179.794 71.9061 179.09 72.9257 177.718 73.7168L114.739 109.967C113.437 110.723 111.783 111.127 110.183 111.162Z" fill="#0F054C"/>
<path d="M114.739 98.4872L177.718 62.237C180.216 60.7954 180.497 58.6155 178.333 57.3673L115.618 21.1874C113.455 19.9392 109.672 20.0975 107.174 21.5214L44.1953 57.7892C41.6972 59.2308 41.4157 61.4107 43.5795 62.6589L106.295 98.8388C108.458 100.069 112.241 99.9288 114.739 98.4872ZM111.256 96.36C110.693 96.694 109.813 96.7292 109.32 96.4303L47.7136 60.9185C47.2211 60.6372 47.2738 60.1274 47.8544 59.8109L110.657 23.6662C111.22 23.3322 112.1 23.297 112.593 23.5959L174.199 59.1253C174.692 59.4066 174.639 59.9164 174.059 60.2329L111.256 96.36Z" fill="url(#paint10_linear_713_1999)"/>
<path d="M114.739 98.4872L177.718 62.237C180.216 60.7954 180.497 58.6155 178.333 57.3673L115.618 21.1874C113.455 19.9392 109.672 20.0975 107.174 21.5214L44.1953 57.7892C41.6972 59.2308 41.4157 61.4107 43.5795 62.6589L106.295 98.8388C108.458 100.069 112.241 99.9288 114.739 98.4872ZM111.256 96.36C110.693 96.694 109.813 96.7292 109.32 96.4303L47.7136 60.9185C47.2211 60.6372 47.2738 60.1274 47.8544 59.8109L110.657 23.6662C111.22 23.3322 112.1 23.297 112.593 23.5959L174.199 59.1253C174.692 59.4066 174.639 59.9164 174.059 60.2329L111.256 96.36Z" fill="url(#paint11_linear_713_1999)"/>
<path d="M174.182 58.4925L112.593 22.9631C112.1 22.6818 111.238 22.7169 110.658 23.0334L47.8546 59.1781C47.3972 59.4594 47.274 59.8286 47.5027 60.1098C47.5731 60.0044 47.6962 59.8989 47.8546 59.7934L110.658 23.6487C111.221 23.3147 112.1 23.2795 112.593 23.5784L174.199 59.1078C174.287 59.1605 174.358 59.2308 174.411 59.3012C174.604 59.0023 174.551 58.7034 174.182 58.4925Z" fill="#42E8E0"/>
<path d="M177.718 61.6216L114.739 97.8718C112.241 99.3134 108.458 99.4716 106.295 98.2058L43.5796 62.0435C42.7176 61.5513 42.2602 60.9184 42.1546 60.2328C42.0139 61.1294 42.4713 62.026 43.5796 62.6588L106.295 98.8387C108.458 100.087 112.241 99.9287 114.739 98.5047L177.718 62.2545C179.231 61.3755 179.917 60.2328 179.758 59.1956C179.618 60.0394 178.932 60.9184 177.718 61.6216Z" fill="#42E8E0"/>
<path d="M112.575 28.1316C112.083 27.8503 111.221 27.8855 110.64 28.2019L50.7752 62.6765L47.7318 60.9185C47.2392 60.6372 47.292 60.1274 47.8725 59.8109L110.676 23.6662C111.239 23.3322 112.118 23.297 112.611 23.5959L174.217 59.1253C174.71 59.4066 174.657 59.9164 174.077 60.2329L171.156 61.903L112.575 28.1316Z" fill="#251C72"/>
<path opacity="0.7" d="M174.041 60.2153C174.604 59.8813 174.675 59.389 174.182 59.1077L112.593 23.5783C112.1 23.297 111.238 23.3322 110.658 23.6486L47.8549 59.7933C47.292 60.1274 47.2216 60.6196 47.7142 60.9009L109.321 96.4303C109.814 96.7116 110.676 96.6764 111.256 96.36L174.041 60.2153Z" fill="#42E8E0"/>
<path d="M114.739 90.3477L177.718 54.0975C179.09 53.3064 179.794 52.2868 179.776 51.3198V39.9631L177.612 41.8793L175.748 40.8069C175.959 40.5784 176.082 40.3674 176.047 40.2971C175.941 40.1037 175.132 38.6973 175.132 38.6973L130.73 12.5029L116.604 4.29303L111.08 2.69324L46.4296 39.8224L46.6231 41.3168L44.8991 42.3012L42.1372 41.0706L42.1196 52.3571C42.102 53.1658 42.577 53.9393 43.5797 54.5194L106.295 90.6993C108.459 91.9475 112.241 91.7893 114.739 90.3477ZM140.3 62.3602L111.783 77.9186L109.321 77.7955L61.6994 51.1616L48.5055 44.3581L110.658 8.58257C111.221 8.24855 112.1 8.21339 112.593 8.51225L173.074 43.3912L140.3 62.3602Z" fill="url(#paint12_linear_713_1999)"/>
<path d="M114.739 90.3477L177.718 54.0975C179.09 53.3064 179.794 52.2868 179.776 51.3198V39.9631L177.612 41.8793L175.748 40.8069C175.959 40.5784 176.082 40.3674 176.047 40.2971C175.941 40.1037 175.132 38.6973 175.132 38.6973L130.73 12.5029L116.604 4.29303L111.08 2.69324L46.4296 39.8224L46.6231 41.3168L44.8991 42.3012L42.1372 41.0706L42.1196 52.3571C42.102 53.1658 42.577 53.9393 43.5797 54.5194L106.295 90.6993C108.459 91.9475 112.241 91.7893 114.739 90.3477ZM140.3 62.3602L111.783 77.9186L109.321 77.7955L61.6994 51.1616L48.5055 44.3581L110.658 8.58257C111.221 8.24855 112.1 8.21339 112.593 8.51225L173.074 43.3912L140.3 62.3602Z" fill="url(#paint13_linear_713_1999)"/>
<path opacity="0.6" d="M110.183 91.5255V77.8306L111.766 77.9009L140.282 62.3425L173.038 43.3736L171.948 42.7407C172.968 42.1605 178.703 40.5607 179.759 39.9454V50.4759V51.3022C179.776 52.2691 179.072 53.2887 177.7 54.0798L114.721 90.3301C113.437 91.1036 111.783 91.4903 110.183 91.5255Z" fill="#0F054C"/>
<path d="M114.739 78.8678L177.718 42.6176C180.216 41.176 180.497 38.9961 178.333 37.7479L115.618 1.56803C113.455 0.31984 109.672 0.478065 107.174 1.90205L44.1953 38.1523C41.6972 39.5938 41.4157 41.7738 43.5795 43.0219L106.295 79.2018C108.458 80.45 112.241 80.3094 114.739 78.8678ZM111.256 76.7406C110.693 77.0746 109.813 77.1098 109.32 76.8109L47.7136 41.2815C47.2211 41.0002 47.2738 40.4904 47.8544 40.174L110.657 4.02925C111.22 3.69523 112.1 3.66006 112.593 3.95893L174.199 39.4883C174.692 39.7696 174.639 40.2794 174.059 40.5959L111.256 76.7406Z" fill="url(#paint14_linear_713_1999)"/>
<path d="M114.739 78.8678L177.718 42.6176C180.216 41.176 180.497 38.9961 178.333 37.7479L115.618 1.56803C113.455 0.31984 109.672 0.478065 107.174 1.90205L44.1953 38.1523C41.6972 39.5938 41.4157 41.7738 43.5795 43.0219L106.295 79.2018C108.458 80.45 112.241 80.3094 114.739 78.8678ZM111.256 76.7406C110.693 77.0746 109.813 77.1098 109.32 76.8109L47.7136 41.2815C47.2211 41.0002 47.2738 40.4904 47.8544 40.174L110.657 4.02925C111.22 3.69523 112.1 3.66006 112.593 3.95893L174.199 39.4883C174.692 39.7696 174.639 40.2794 174.059 40.5959L111.256 76.7406Z" fill="url(#paint15_linear_713_1999)"/>
<path d="M174.182 38.8731L112.593 3.34368C112.1 3.0624 111.238 3.09756 110.658 3.414L47.8546 39.5587C47.3972 39.8224 47.274 40.2092 47.5027 40.4905C47.5731 40.385 47.6962 40.2795 47.8546 40.174L110.658 4.02931C111.221 3.69528 112.1 3.66012 112.593 3.95898L174.199 39.4884C174.287 39.5411 174.358 39.6115 174.411 39.6818C174.604 39.3829 174.551 39.0665 174.182 38.8731Z" fill="#42E8E0"/>
<path d="M177.718 42.0024L114.739 78.2526C112.241 79.6941 108.458 79.8523 106.295 78.5866L43.5796 42.4067C42.7176 41.9144 42.2602 41.2816 42.1546 40.5959C42.0139 41.4925 42.4713 42.3891 43.5796 43.022L106.295 79.2019C108.458 80.4501 112.241 80.2919 114.739 78.8679L177.718 42.6177C179.231 41.7386 179.917 40.5959 179.758 39.5587C179.618 40.4201 178.932 41.2991 177.718 42.0024Z" fill="#42E8E0"/>
<path d="M112.575 8.51219C112.083 8.23091 111.221 8.26607 110.64 8.58251L50.7752 43.0571L47.7318 41.2991C47.2392 41.0178 47.292 40.508 47.8725 40.1916L110.676 4.04684C111.239 3.71282 112.118 3.67766 112.611 3.97652L174.217 39.5059C174.71 39.7872 174.657 40.297 174.077 40.6135L171.156 42.2836L112.575 8.51219Z" fill="#251C72"/>
<path opacity="0.7" d="M174.041 40.5959C174.604 40.2619 174.675 39.7696 174.182 39.4883L112.593 3.95892C112.1 3.67763 111.238 3.7128 110.658 4.02924L47.8549 40.174C47.292 40.508 47.2216 41.0002 47.7142 41.2815L109.321 76.8109C109.814 77.0922 110.676 77.057 111.256 76.7406L174.041 40.5959Z" fill="#42E8E0"/>
<defs>
<linearGradient id="paint0_linear_713_1999" x1="99.2378" y1="84.9982" x2="131.17" y2="140.473" gradientUnits="userSpaceOnUse">
<stop stop-color="#BCBEFF"/>
<stop offset="0.1659" stop-color="#B6B8FC"/>
<stop offset="0.3956" stop-color="#A4A8F5"/>
<stop offset="0.6625" stop-color="#868DEA"/>
<stop offset="0.9554" stop-color="#5E67DA"/>
<stop offset="1" stop-color="#5761D7"/>
</linearGradient>
<linearGradient id="paint1_linear_713_1999" x1="99.2378" y1="84.9982" x2="131.17" y2="140.473" gradientUnits="userSpaceOnUse">
<stop stop-color="#706EC4"/>
<stop offset="0.0222" stop-color="#6D6BC2"/>
<stop offset="0.2509" stop-color="#5651AC"/>
<stop offset="0.4865" stop-color="#463F9D"/>
<stop offset="0.7314" stop-color="#3C3494"/>
<stop offset="1" stop-color="#393091"/>
</linearGradient>
<linearGradient id="paint2_linear_713_1999" x1="93.3595" y1="68.7315" x2="128.515" y2="129.807" gradientUnits="userSpaceOnUse">
<stop stop-color="#BCBEFF"/>
<stop offset="0.1659" stop-color="#B6B8FC"/>
<stop offset="0.3956" stop-color="#A4A8F5"/>
<stop offset="0.6625" stop-color="#868DEA"/>
<stop offset="0.9554" stop-color="#5E67DA"/>
<stop offset="1" stop-color="#5761D7"/>
</linearGradient>
<linearGradient id="paint3_linear_713_1999" x1="88.499" y1="60.2987" x2="151.925" y2="170.489" gradientUnits="userSpaceOnUse">
<stop stop-color="#706EC4"/>
<stop offset="0.0222" stop-color="#6D6BC2"/>
<stop offset="0.2509" stop-color="#5651AC"/>
<stop offset="0.4865" stop-color="#463F9D"/>
<stop offset="0.7314" stop-color="#3C3494"/>
<stop offset="1" stop-color="#393091"/>
</linearGradient>
<linearGradient id="paint4_linear_713_1999" x1="99.2377" y1="65.3739" x2="131.17" y2="120.849" gradientUnits="userSpaceOnUse">
<stop stop-color="#BCBEFF"/>
<stop offset="0.1659" stop-color="#B6B8FC"/>
<stop offset="0.3956" stop-color="#A4A8F5"/>
<stop offset="0.6625" stop-color="#868DEA"/>
<stop offset="0.9554" stop-color="#5E67DA"/>
<stop offset="1" stop-color="#5761D7"/>
</linearGradient>
<linearGradient id="paint5_linear_713_1999" x1="99.2377" y1="65.3739" x2="131.17" y2="120.849" gradientUnits="userSpaceOnUse">
<stop stop-color="#706EC4"/>
<stop offset="0.0222" stop-color="#6D6BC2"/>
<stop offset="0.2509" stop-color="#5651AC"/>
<stop offset="0.4865" stop-color="#463F9D"/>
<stop offset="0.7314" stop-color="#3C3494"/>
<stop offset="1" stop-color="#393091"/>
</linearGradient>
<linearGradient id="paint6_linear_713_1999" x1="93.3595" y1="49.1074" x2="128.515" y2="110.183" gradientUnits="userSpaceOnUse">
<stop stop-color="#BCBEFF"/>
<stop offset="0.1659" stop-color="#B6B8FC"/>
<stop offset="0.3956" stop-color="#A4A8F5"/>
<stop offset="0.6625" stop-color="#868DEA"/>
<stop offset="0.9554" stop-color="#5E67DA"/>
<stop offset="1" stop-color="#5761D7"/>
</linearGradient>
<linearGradient id="paint7_linear_713_1999" x1="88.499" y1="40.6747" x2="151.925" y2="150.865" gradientUnits="userSpaceOnUse">
<stop stop-color="#706EC4"/>
<stop offset="0.0222" stop-color="#6D6BC2"/>
<stop offset="0.2509" stop-color="#5651AC"/>
<stop offset="0.4865" stop-color="#463F9D"/>
<stop offset="0.7314" stop-color="#3C3494"/>
<stop offset="1" stop-color="#393091"/>
</linearGradient>
<linearGradient id="paint8_linear_713_1999" x1="99.2379" y1="45.7499" x2="131.17" y2="101.225" gradientUnits="userSpaceOnUse">
<stop stop-color="#BCBEFF"/>
<stop offset="0.1659" stop-color="#B6B8FC"/>
<stop offset="0.3956" stop-color="#A4A8F5"/>
<stop offset="0.6625" stop-color="#868DEA"/>
<stop offset="0.9554" stop-color="#5E67DA"/>
<stop offset="1" stop-color="#5761D7"/>
</linearGradient>
<linearGradient id="paint9_linear_713_1999" x1="99.2379" y1="45.7499" x2="131.17" y2="101.225" gradientUnits="userSpaceOnUse">
<stop stop-color="#706EC4"/>
<stop offset="0.0222" stop-color="#6D6BC2"/>
<stop offset="0.2509" stop-color="#5651AC"/>
<stop offset="0.4865" stop-color="#463F9D"/>
<stop offset="0.7314" stop-color="#3C3494"/>
<stop offset="1" stop-color="#393091"/>
</linearGradient>
<linearGradient id="paint10_linear_713_1999" x1="93.3593" y1="29.4835" x2="128.515" y2="90.5588" gradientUnits="userSpaceOnUse">
<stop stop-color="#BCBEFF"/>
<stop offset="0.1659" stop-color="#B6B8FC"/>
<stop offset="0.3956" stop-color="#A4A8F5"/>
<stop offset="0.6625" stop-color="#868DEA"/>
<stop offset="0.9554" stop-color="#5E67DA"/>
<stop offset="1" stop-color="#5761D7"/>
</linearGradient>
<linearGradient id="paint11_linear_713_1999" x1="88.4989" y1="21.0508" x2="151.925" y2="131.24" gradientUnits="userSpaceOnUse">
<stop stop-color="#706EC4"/>
<stop offset="0.0222" stop-color="#6D6BC2"/>
<stop offset="0.2509" stop-color="#5651AC"/>
<stop offset="0.4865" stop-color="#463F9D"/>
<stop offset="0.7314" stop-color="#3C3494"/>
<stop offset="1" stop-color="#393091"/>
</linearGradient>
<linearGradient id="paint12_linear_713_1999" x1="99.2381" y1="26.1258" x2="131.17" y2="81.6005" gradientUnits="userSpaceOnUse">
<stop stop-color="#BCBEFF"/>
<stop offset="0.1659" stop-color="#B6B8FC"/>
<stop offset="0.3956" stop-color="#A4A8F5"/>
<stop offset="0.6625" stop-color="#868DEA"/>
<stop offset="0.9554" stop-color="#5E67DA"/>
<stop offset="1" stop-color="#5761D7"/>
</linearGradient>
<linearGradient id="paint13_linear_713_1999" x1="99.2381" y1="26.1258" x2="131.17" y2="81.6005" gradientUnits="userSpaceOnUse">
<stop stop-color="#706EC4"/>
<stop offset="0.0222" stop-color="#6D6BC2"/>
<stop offset="0.2509" stop-color="#5651AC"/>
<stop offset="0.4865" stop-color="#463F9D"/>
<stop offset="0.7314" stop-color="#3C3494"/>
<stop offset="1" stop-color="#393091"/>
</linearGradient>
<linearGradient id="paint14_linear_713_1999" x1="93.3594" y1="9.8593" x2="128.515" y2="70.9348" gradientUnits="userSpaceOnUse">
<stop stop-color="#BCBEFF"/>
<stop offset="0.1659" stop-color="#B6B8FC"/>
<stop offset="0.3956" stop-color="#A4A8F5"/>
<stop offset="0.6625" stop-color="#868DEA"/>
<stop offset="0.9554" stop-color="#5E67DA"/>
<stop offset="1" stop-color="#5761D7"/>
</linearGradient>
<linearGradient id="paint15_linear_713_1999" x1="88.4989" y1="1.42653" x2="151.925" y2="111.616" gradientUnits="userSpaceOnUse">
<stop stop-color="#706EC4"/>
<stop offset="0.0222" stop-color="#6D6BC2"/>
<stop offset="0.2509" stop-color="#5651AC"/>
<stop offset="0.4865" stop-color="#463F9D"/>
<stop offset="0.7314" stop-color="#3C3494"/>
<stop offset="1" stop-color="#393091"/>
</linearGradient>
</defs>
</svg>
