<svg width="30" height="30" viewBox="0 0 30 30" fill="none" xmlns="http://www.w3.org/2000/svg">
<path d="M25.5846 4.28869C25.2093 3.95479 24.6199 3.90701 24.0104 4.16374H24.0094C23.3685 4.43359 5.86576 12.3107 5.15324 12.6325C5.02365 12.6798 3.89183 13.1229 4.00841 14.1099C4.11249 14.9998 5.02215 15.3683 5.13323 15.4108L9.58295 17.0095C9.87817 18.0406 10.9665 21.8447 11.2071 22.6574C11.3572 23.1641 11.6019 23.8298 12.0307 23.9668C12.407 24.119 12.7813 23.9799 13.0234 23.7804L15.7439 21.1328L20.1356 24.7265L20.2402 24.7921C20.5384 24.9307 20.8241 25 21.0968 25C21.3075 25 21.5096 24.9585 21.7027 24.8756C22.3607 24.5921 22.6239 23.9342 22.6514 23.8597L25.9318 5.96922C26.132 5.01372 25.8538 4.52756 25.5846 4.28869ZM13.5073 17.6489L12.0062 21.8489L10.5051 16.5989L22.0135 7.6739L13.5073 17.6489Z" fill="white"/>
</svg>
