<svg width="30" height="30" viewBox="0 0 30 30" fill="none" xmlns="http://www.w3.org/2000/svg">
<path d="M28 6.48528C27.0415 6.90822 26.0142 7.19219 24.9341 7.32109C26.0365 6.66452 26.8835 5.6253 27.2806 4.3887C26.2513 4.99492 25.1064 5.43598 23.8926 5.67364C22.92 4.64247 21.5339 4 20 4C17.0537 4 14.6646 6.37249 14.6646 9.30085C14.6646 9.71574 14.7133 10.1206 14.8045 10.5093C10.3708 10.2877 6.44174 8.17704 3.80952 4.96873C3.34954 5.7542 3.08815 6.66452 3.08815 7.63527C3.08815 9.47406 4.02837 11.0973 5.46099 12.05C4.58561 12.0218 3.76292 11.7821 3.04357 11.3853C3.04357 11.4075 3.04357 11.4297 3.04357 11.4518C3.04357 14.0217 4.88349 16.1626 7.32118 16.652C6.87538 16.7728 6.40324 16.8372 5.91692 16.8372C5.57244 16.8372 5.2381 16.805 4.91185 16.7406C5.59271 18.8452 7.56231 20.3819 9.89463 20.4242C8.07092 21.8461 5.77102 22.692 3.27052 22.692C2.83891 22.692 2.4154 22.6678 2 22.6174C4.35866 24.1239 7.16312 25 10.1763 25C19.9878 25 25.3536 16.9218 25.3536 9.91714C25.3536 9.68754 25.3475 9.45593 25.3394 9.23036C26.381 8.48317 27.2847 7.54867 28 6.48528Z" fill="white"/>
</svg>
